<svg width="149" height="46" viewBox="0 0 149 46" fill="none" xmlns="http://www.w3.org/2000/svg">
<g id="&#208;&#161;&#208;&#190;&#209;&#134;&#209;&#129;&#208;&#181;&#209;&#130;&#208;&#184;">
<g id="&#208;&#167;&#208;&#176;&#209;&#130;">
<circle id="Ellipse 16" cx="126" cy="23" r="22.25" fill="white" stroke="#41B7E9" stroke-width="1.5"/>
<g id="Group 27">
<g id="_x31_4_comment">
<g id="Group">
<path id="Vector" d="M121.433 32.7333C121.34 32.7333 121.247 32.7124 121.158 32.6706C120.94 32.5649 120.8 32.3438 120.8 32.1V28.9333H118.9C117.852 28.9333 117 28.0809 117 27.0333V16.9C117 15.8525 117.852 15 118.9 15H134.1C135.148 15 136 15.8525 136 16.9V27.0333C136 28.0809 135.148 28.9333 134.1 28.9333H126.406L121.829 32.5946C121.715 32.6865 121.575 32.7333 121.433 32.7333ZM118.9 16.2667C118.55 16.2667 118.267 16.551 118.267 16.9V27.0333C118.267 27.3823 118.55 27.6667 118.9 27.6667H121.433C121.784 27.6667 122.067 27.9498 122.067 28.3V30.7827L125.787 27.8054C125.9 27.7154 126.039 27.6667 126.183 27.6667H134.1C134.45 27.6667 134.733 27.3823 134.733 27.0333V16.9C134.733 16.551 134.45 16.2667 134.1 16.2667H118.9Z" fill="#41B7E9"/>
</g>
<g id="Group_2">
<path id="Vector_2" d="M131.567 21.3331H121.433C121.083 21.3331 120.8 21.0493 120.8 20.6997C120.8 20.3501 121.083 20.0664 121.433 20.0664H131.567C131.917 20.0664 132.2 20.3501 132.2 20.6997C132.2 21.0493 131.917 21.3331 131.567 21.3331Z" fill="#41B7E9"/>
</g>
<g id="Group_3">
<path id="Vector_3" d="M126.5 23.8663H121.433C121.083 23.8663 120.8 23.5825 120.8 23.2329C120.8 22.8833 121.083 22.5996 121.433 22.5996H126.5C126.85 22.5996 127.133 22.8833 127.133 23.2329C127.133 23.5825 126.85 23.8663 126.5 23.8663Z" fill="#41B7E9"/>
</g>
</g>
</g>
</g>
<g id="&#208;&#146;&#208;&#176;&#208;&#185;&#208;&#177;&#208;&#181;&#209;&#128;">
<circle id="Ellipse 15" cx="74" cy="23" r="22.25" fill="white" stroke="#675DA9" stroke-width="1.5"/>
<g id="Group_4">
<path id="Vector_4" d="M82.7896 14.178C82.2358 13.6688 79.9936 12.0386 74.9957 12.0163C74.9957 12.0163 69.1045 11.6589 66.2325 14.2941C64.6336 15.8931 64.0708 18.2291 64.0127 21.1323C63.9547 24.031 63.8787 29.4666 69.1179 30.9406H69.1223L69.1179 33.1872C69.1179 33.1872 69.0866 34.0983 69.6851 34.2815C70.4087 34.5048 70.8374 33.8125 71.5297 33.0666C71.9094 32.6557 72.432 32.0572 72.8295 31.5971C76.4116 31.8964 79.1673 31.2086 79.48 31.1058C80.2036 30.8691 84.2993 30.3465 84.9648 24.9109C85.6526 19.3189 84.6298 15.777 82.7896 14.178ZM83.3971 24.5178C82.8343 29.0557 79.5157 29.3416 78.9038 29.5381C78.6448 29.623 76.224 30.2259 73.1779 30.0249C73.1779 30.0249 70.9089 32.7629 70.2032 33.473C70.0915 33.5847 69.962 33.6294 69.8772 33.607C69.7566 33.5758 69.7208 33.4328 69.7253 33.2229C69.7253 32.9192 69.7432 29.4845 69.7432 29.4845C69.7387 29.4845 69.7387 29.4845 69.7432 29.4845C65.308 28.2562 65.567 23.629 65.6162 21.2082C65.6653 18.7874 66.1209 16.7998 67.4742 15.4644C69.8995 13.2669 74.9064 13.5929 74.9064 13.5929C79.1316 13.6108 81.1549 14.8837 81.6239 15.308C83.1827 16.648 83.9777 19.8415 83.3971 24.5178Z" fill="#675DA9"/>
<path id="Vector_5" d="M77.0548 21.2926C76.9074 21.2926 76.7823 21.1765 76.7734 21.0246C76.7242 20.0643 76.2731 19.5954 75.353 19.5462C75.1967 19.5373 75.0761 19.4033 75.0851 19.247C75.094 19.0906 75.228 18.97 75.3843 18.979C76.5992 19.046 77.2781 19.7427 77.3406 20.9933C77.3495 21.1497 77.229 21.2837 77.0726 21.2881C77.0637 21.2926 77.0592 21.2926 77.0548 21.2926Z" fill="#675DA9"/>
<path id="Vector_6" d="M78.5018 21.776H78.4974C78.341 21.7715 78.216 21.642 78.2205 21.4857C78.2428 20.5209 77.9659 19.7393 77.3763 19.0961C76.7912 18.453 75.9828 18.1046 74.9153 18.0287C74.759 18.0153 74.6428 17.8813 74.6562 17.7249C74.6696 17.5686 74.8036 17.4525 74.96 17.4659C76.1659 17.5552 77.1172 17.9751 77.7961 18.7165C78.4795 19.4624 78.81 20.3959 78.7877 21.4991C78.7832 21.6554 78.6537 21.776 78.5018 21.776Z" fill="#675DA9"/>
<path id="Vector_7" d="M79.9847 22.3559C79.8284 22.3559 79.7033 22.2308 79.7033 22.0745C79.6899 20.346 79.1941 19.0284 78.1847 18.0413C77.1887 17.0676 75.9247 16.5718 74.4374 16.5584C74.2811 16.5584 74.156 16.4289 74.156 16.2726C74.156 16.1163 74.2855 15.9912 74.4374 15.9912C76.0766 16.0046 77.4701 16.554 78.5733 17.6349C79.681 18.7157 80.2482 20.2075 80.2661 22.0656C80.2706 22.2264 80.1455 22.3559 79.9847 22.3559C79.9892 22.3559 79.9892 22.3559 79.9847 22.3559Z" fill="#675DA9"/>
<path id="Vector_8" d="M75.42 24.7908C75.42 24.7908 75.8175 24.8265 76.0319 24.563L76.4473 24.0404C76.6483 23.7813 77.1351 23.6161 77.6086 23.8796C77.8721 24.027 78.35 24.3218 78.6448 24.5406C78.9619 24.7729 79.6051 25.3089 79.6095 25.3133C79.9177 25.5724 79.9892 25.952 79.7793 26.3585C79.7793 26.3585 79.7793 26.3629 79.7793 26.3674C79.5649 26.7471 79.2746 27.1044 78.9128 27.4349C78.9083 27.4349 78.9083 27.4394 78.9038 27.4394C78.6046 27.6895 78.3098 27.8324 78.0239 27.8637C77.9882 27.8726 77.948 27.8726 77.8944 27.8726C77.7694 27.8726 77.6443 27.8547 77.5192 27.8145L77.5103 27.8011C77.0637 27.6761 76.3222 27.3634 75.0895 26.6801C74.2855 26.2379 73.62 25.7868 73.0528 25.3357C72.7536 25.0989 72.4498 24.8354 72.1372 24.5228C72.1282 24.5138 72.1149 24.5004 72.1059 24.4915C72.097 24.4826 72.0836 24.4692 72.0747 24.4602C72.0657 24.4513 72.0523 24.4379 72.0434 24.429C72.0345 24.42 72.0211 24.4066 72.0121 24.3977C71.7039 24.0851 71.436 23.7813 71.1992 23.4821C70.7481 22.9193 70.297 22.2493 69.8548 21.4454C69.1715 20.2082 68.8588 19.4668 68.7338 19.0246L68.7204 19.0156C68.6802 18.8906 68.6623 18.7655 68.6623 18.6405C68.6623 18.5869 68.6623 18.5467 68.6712 18.5109C68.707 18.2206 68.8499 17.9303 69.0955 17.631C69.0955 17.6266 69.1 17.6266 69.1 17.6221C69.4305 17.2559 69.7878 16.97 70.1675 16.7556C70.1675 16.7556 70.1719 16.7556 70.1764 16.7556C70.5784 16.5457 70.958 16.6172 71.2216 16.9254C71.2216 16.9254 71.762 17.573 71.9943 17.8901C72.2131 18.1894 72.5079 18.6628 72.6553 18.9263C72.9188 19.3998 72.7536 19.8866 72.4945 20.0876L71.9719 20.503C71.7084 20.7174 71.7441 21.1149 71.7441 21.1149C71.7441 21.1149 72.5168 24.0538 75.42 24.7908Z" fill="#675DA9"/>
</g>
</g>
<g id="&#208;&#146;&#208;&#176;&#209;&#130;&#209;&#129;&#208;&#176;&#208;&#191;">
<circle id="Ellipse 14" cx="23" cy="23" r="22.25" fill="white" stroke="#0DC143" stroke-width="1.5"/>
<path id="Vector_9" d="M30.9673 15.0649C29.0218 13.0784 26.3324 12 23.5858 12C17.7493 12 13.0572 16.7108 13.1144 22.4432C13.1144 24.2595 13.6294 26.0189 14.4877 27.6081L13 33L18.5504 31.5811C20.0954 32.4324 21.812 32.8297 23.5286 32.8297C29.3079 32.8297 34 28.1189 34 22.3865C34 19.6054 32.9128 16.9946 30.9673 15.0649ZM23.5858 31.0703C22.0409 31.0703 20.4959 30.673 19.1798 29.8784L18.8365 29.7081L15.5177 30.5595L16.376 27.3243L16.1471 26.9838C13.6294 22.9541 14.8311 17.6189 18.951 15.1216C23.0708 12.6243 28.3924 13.8162 30.9101 17.9027C33.4278 21.9892 32.2262 27.2676 28.1063 29.7649C26.7902 30.6162 25.188 31.0703 23.5858 31.0703ZM28.6213 24.7703L27.9918 24.4865C27.9918 24.4865 27.0763 24.0892 26.5041 23.8054C26.4469 23.8054 26.3896 23.7486 26.3324 23.7486C26.1608 23.7486 26.0463 23.8054 25.9319 23.8622C25.9319 23.8622 25.8747 23.9189 25.0736 24.827C25.0163 24.9405 24.9019 24.9973 24.7875 24.9973H24.7302C24.673 24.9973 24.5586 24.9405 24.5014 24.8838L24.2153 24.7703C23.5858 24.4865 23.0136 24.1459 22.5559 23.6919C22.4414 23.5784 22.2698 23.4649 22.1553 23.3514C21.7548 22.9541 21.3542 22.5 21.0681 21.9892L21.0109 21.8757C20.9537 21.8189 20.9537 21.7622 20.8965 21.6486C20.8965 21.5351 20.8965 21.4216 20.9537 21.3649C20.9537 21.3649 21.1826 21.0811 21.3542 20.9108C21.4687 20.7973 21.5259 20.627 21.6403 20.5135C21.7548 20.3432 21.812 20.1162 21.7548 19.9459C21.6975 19.6622 21.0109 18.1297 20.8392 17.7892C20.7248 17.6189 20.6104 17.5622 20.4387 17.5054H20.267C20.1526 17.5054 19.9809 17.5054 19.8093 17.5054C19.6948 17.5054 19.5804 17.5622 19.4659 17.5622L19.4087 17.6189C19.2943 17.6757 19.1798 17.7892 19.0654 17.8459C18.951 17.9595 18.8937 18.073 18.7793 18.1865C18.3787 18.6973 18.1499 19.3216 18.1499 19.9459C18.1499 20.4 18.2643 20.8541 18.436 21.2514L18.4932 21.4216C19.0082 22.5 19.6948 23.4649 20.6104 24.3162L20.8392 24.5432C21.0109 24.7135 21.1826 24.827 21.297 24.9973C22.4986 26.0189 23.8719 26.7568 25.4169 27.1541C25.5886 27.2108 25.8174 27.2108 25.9891 27.2676C26.1608 27.2676 26.3896 27.2676 26.5613 27.2676C26.8474 27.2676 27.1907 27.1541 27.4196 27.0405C27.5913 26.927 27.7057 26.927 27.8202 26.8135L27.9346 26.7C28.049 26.5865 28.1635 26.5297 28.2779 26.4162C28.3924 26.3027 28.5068 26.1892 28.564 26.0757C28.6785 25.8486 28.7357 25.5649 28.7929 25.2811C28.7929 25.1676 28.7929 24.9973 28.7929 24.8838C28.7929 24.8838 28.7357 24.827 28.6213 24.7703Z" fill="#0DC143"/>
</g>
</g>
</svg>
